<svg width="879" height="211" viewBox="0 0 879 211" fill="#e3e3e3" xmlns="http://www.w3.org/2000/svg">
<path d="M296.877 208V203.144L313.496 202.065V59.9473L296.877 58.8682V54.0122H354.609C360.796 54.0122 366.408 54.3 371.443 54.8755C376.551 55.451 381.587 56.5301 386.551 58.1128C391.515 59.6235 395.651 61.6379 398.96 64.1558C402.342 66.6737 405.039 70.0189 407.054 74.1914C409.14 78.292 410.183 83.112 410.183 88.6514C410.183 93.0397 409.212 97.1043 407.27 100.845C405.327 104.514 402.845 107.572 399.824 110.018C396.874 112.464 393.421 114.658 389.464 116.6C385.508 118.471 381.695 119.909 378.026 120.917C374.357 121.924 370.688 122.679 367.019 123.183V123.614C374.285 123.614 380.975 124.478 387.09 126.204C393.205 127.859 398.529 130.341 403.061 133.65C407.665 136.959 411.262 141.312 413.852 146.707C416.442 152.031 417.737 158.11 417.737 164.944C417.737 171.131 416.622 176.706 414.392 181.67C412.161 186.562 409.176 190.626 405.435 193.864C401.694 197.101 397.27 199.799 392.162 201.957C387.126 204.115 381.875 205.662 376.407 206.597C370.94 207.532 365.221 208 359.25 208H296.877ZM341.121 200.986C345.005 201.705 348.746 202.065 352.343 202.065C363.782 202.065 372.738 198.756 379.213 192.137C385.759 185.519 389.033 176.526 389.033 165.16C389.033 153.002 385.652 143.722 378.889 137.319C372.199 130.844 362.918 127.607 351.048 127.607C347.667 127.607 344.358 127.859 341.121 128.362V200.986ZM341.121 121.024C344.142 121.456 346.912 121.672 349.43 121.672C371.228 121.672 382.126 110.881 382.126 89.2988C382.126 80.0905 379.681 72.8965 374.789 67.7168C369.897 62.5371 362.415 59.9473 352.343 59.9473C348.746 59.9473 345.005 60.307 341.121 61.0264V121.024ZM430.228 190.106C430.228 188.253 430.406 186.447 430.763 184.688C431.119 182.906 431.701 181.195 432.509 179.556C433.317 177.916 434.303 176.478 435.468 175.243C436.632 174.007 438.07 173.021 439.781 172.284C441.515 171.524 443.428 171.144 445.52 171.144C447.492 171.144 449.262 171.429 450.831 171.999C452.399 172.546 453.706 173.318 454.751 174.316C455.797 175.314 456.664 176.538 457.354 177.987C458.043 179.413 458.53 180.97 458.815 182.657C459.124 184.32 459.278 186.15 459.278 188.146L458.316 189.037H439.353V191.211C439.353 201.572 442.3 206.752 448.193 206.752C452.375 206.752 455.714 204.661 458.209 200.479L459.599 201.334C456.534 206.491 452.173 209.069 446.518 209.069C441.052 209.069 436.965 207.382 434.256 204.008C431.571 200.633 430.228 196 430.228 190.106ZM439.353 187.433L450.866 186.97C450.938 185.758 450.973 184.593 450.973 183.477C450.973 180.031 450.557 177.381 449.726 175.528C448.918 173.674 447.563 172.748 445.662 172.748C444.521 172.748 443.535 173.128 442.704 173.888C441.896 174.625 441.266 175.694 440.814 177.096C440.363 178.498 440.018 180.031 439.781 181.694C439.567 183.334 439.424 185.247 439.353 187.433ZM477.279 207.323C479.988 207.323 481.984 206.824 483.267 205.826C484.574 204.828 485.228 203.58 485.228 202.083C485.228 201.299 485.097 200.61 484.835 200.016C484.598 199.398 484.194 198.816 483.624 198.269C483.077 197.699 482.34 197.128 481.414 196.558C480.511 195.964 479.382 195.299 478.027 194.562C476.839 193.873 475.58 193.16 474.249 192.423C472.918 191.663 471.683 190.796 470.542 189.821C469.425 188.823 468.486 187.671 467.726 186.364C466.989 185.057 466.621 183.488 466.621 181.659C466.621 180.043 466.93 178.581 467.548 177.274C468.166 175.967 469.021 174.862 470.114 173.959C471.231 173.033 472.55 172.32 474.071 171.821C475.615 171.322 477.303 171.072 479.132 171.072C480.511 171.072 481.889 171.25 483.267 171.607C484.669 171.94 485.929 172.451 487.045 173.14C488.162 173.829 489.065 174.684 489.754 175.706C490.444 176.728 490.788 177.916 490.788 179.271C490.788 179.793 490.693 180.304 490.503 180.803C490.337 181.302 490.075 181.754 489.719 182.158C489.362 182.562 488.923 182.894 488.4 183.156C487.901 183.393 487.319 183.512 486.653 183.512C485.275 183.512 484.241 183.132 483.552 182.372C482.863 181.611 482.519 180.684 482.519 179.591C482.519 178.902 482.614 178.32 482.804 177.845C482.994 177.346 483.243 176.942 483.552 176.633C483.885 176.3 484.253 176.062 484.657 175.92C485.085 175.754 485.513 175.67 485.94 175.67H486.261V175.599C486.024 175.219 485.679 174.862 485.228 174.53C484.776 174.173 484.241 173.864 483.624 173.603C483.006 173.318 482.317 173.092 481.556 172.926C480.796 172.759 479.988 172.676 479.132 172.676C477.873 172.676 476.804 172.843 475.924 173.175C475.045 173.508 474.32 173.936 473.75 174.458C473.203 174.958 472.799 175.516 472.538 176.134C472.277 176.752 472.146 177.346 472.146 177.916C472.146 178.605 472.253 179.199 472.467 179.698C472.681 180.197 473.049 180.708 473.572 181.231C474.118 181.73 474.855 182.277 475.782 182.871C476.732 183.465 477.92 184.178 479.346 185.009C480.724 185.722 482.174 186.483 483.695 187.291C485.239 188.098 486.653 189.037 487.937 190.106C489.22 191.152 490.277 192.364 491.109 193.742C491.964 195.097 492.392 196.689 492.392 198.519C492.392 200.063 492.095 201.477 491.501 202.76C490.931 204.043 490.028 205.148 488.792 206.075C487.58 207.002 486.024 207.715 484.123 208.214C482.245 208.737 480.012 208.998 477.421 208.998C476.186 208.998 474.867 208.844 473.465 208.535C472.063 208.226 470.768 207.739 469.58 207.073C468.391 206.384 467.405 205.505 466.621 204.436C465.837 203.342 465.445 202.012 465.445 200.443C465.445 199.778 465.552 199.136 465.766 198.519C465.979 197.901 466.277 197.354 466.657 196.879C467.061 196.38 467.548 195.988 468.118 195.703C468.688 195.417 469.342 195.275 470.079 195.275C470.72 195.275 471.291 195.394 471.79 195.631C472.289 195.845 472.704 196.142 473.037 196.522C473.394 196.879 473.667 197.307 473.857 197.806C474.047 198.305 474.154 198.839 474.178 199.41C474.178 200.075 474.059 200.669 473.821 201.192C473.584 201.691 473.275 202.107 472.895 202.439C472.514 202.772 472.075 203.034 471.576 203.224C471.1 203.39 470.625 203.473 470.15 203.473C470.055 203.473 469.948 203.473 469.829 203.473C469.734 203.473 469.639 203.461 469.544 203.438V203.509C469.758 203.984 470.079 204.447 470.506 204.899C470.934 205.35 471.469 205.754 472.11 206.111C472.776 206.467 473.536 206.764 474.392 207.002C475.271 207.216 476.233 207.323 477.279 207.323ZM495.03 173.746V172.213H501.089V164.335L504.155 164.015L509.181 162.696L509.858 163.729V172.213H517.664V173.746L509.858 174.066V199.16C509.858 200.61 510.024 201.822 510.357 202.796C510.713 203.746 511.165 204.4 511.711 204.756C512.282 205.113 512.733 205.339 513.066 205.434C513.422 205.529 513.791 205.576 514.171 205.576C514.908 205.576 515.609 205.422 516.274 205.113C516.963 204.78 517.581 204.305 518.127 203.687C518.698 203.069 519.161 202.511 519.518 202.012C519.874 201.489 520.278 200.859 520.729 200.123L522.262 201.049C521.003 203.14 519.91 204.661 518.983 205.612C516.725 207.917 514.123 209.069 511.177 209.069C510.06 209.069 509.062 208.986 508.183 208.82C507.327 208.677 506.436 208.356 505.509 207.857C504.583 207.358 503.81 206.693 503.192 205.861C502.575 205.006 502.064 203.841 501.66 202.368C501.279 200.871 501.089 199.125 501.089 197.128V174.066L495.03 173.746Z" />
<path d="M0.0864258 58.8682V54.0122H59.9766V58.8682L45.3008 59.9473L74.0049 167.75H74.4365L107.781 51.7461H112.637L151.484 167.318H151.916L182.778 59.9473L168.21 58.8682V54.0122H202.418V58.8682L189.361 59.9473L145.549 210.158H140.693L100.982 97.6079H100.767L67.7461 210.158H62.8901L16.3809 59.9473L0.0864258 58.8682ZM204.874 190.106C204.874 188.253 205.052 186.447 205.408 184.688C205.765 182.906 206.347 181.195 207.155 179.556C207.963 177.916 208.949 176.478 210.113 175.243C211.278 174.007 212.715 173.021 214.426 172.284C216.161 171.524 218.074 171.144 220.165 171.144C222.137 171.144 223.908 171.429 225.476 171.999C227.044 172.546 228.351 173.318 229.397 174.316C230.443 175.314 231.31 176.538 231.999 177.987C232.688 179.413 233.175 180.97 233.46 182.657C233.769 184.32 233.924 186.15 233.924 188.146L232.961 189.037H213.999V191.211C213.999 201.572 216.945 206.752 222.838 206.752C227.021 206.752 230.359 204.661 232.854 200.479L234.245 201.334C231.179 206.491 226.819 209.069 221.163 209.069C215.698 209.069 211.61 207.382 208.901 204.008C206.216 200.633 204.874 196 204.874 190.106ZM213.999 187.433L225.512 186.97C225.583 185.758 225.619 184.593 225.619 183.477C225.619 180.031 225.203 177.381 224.371 175.528C223.563 173.674 222.209 172.748 220.308 172.748C219.167 172.748 218.181 173.128 217.349 173.888C216.541 174.625 215.911 175.694 215.46 177.096C215.008 178.498 214.664 180.031 214.426 181.694C214.212 183.334 214.07 185.247 213.999 187.433ZM239.556 200.265C239.556 199.101 239.734 197.984 240.09 196.915C240.471 195.821 241.076 194.776 241.908 193.778C242.74 192.78 243.762 191.912 244.974 191.176C246.186 190.439 247.683 189.857 249.465 189.429C251.271 188.978 253.267 188.752 255.453 188.752C256.618 188.752 257.722 188.799 258.768 188.895V183.976C258.768 182.407 258.732 181.136 258.661 180.162C258.614 179.187 258.471 178.189 258.233 177.167C257.996 176.122 257.651 175.326 257.2 174.779C256.772 174.209 256.154 173.746 255.346 173.389C254.562 173.009 253.6 172.819 252.459 172.819C248.99 172.819 246.459 174.185 244.867 176.918V177.061C245.271 176.989 245.639 176.954 245.972 176.954C247.207 176.954 248.182 177.334 248.895 178.094C249.607 178.855 249.964 179.948 249.964 181.374C249.964 182.609 249.536 183.655 248.681 184.51C247.825 185.342 246.756 185.758 245.473 185.758C244.071 185.758 242.966 185.283 242.158 184.332C241.35 183.382 240.946 182.265 240.946 180.981C240.946 178.177 242.229 175.837 244.795 173.959C247.386 172.082 250.356 171.144 253.707 171.144C256.083 171.144 258.103 171.393 259.766 171.892C261.453 172.391 262.796 173.056 263.794 173.888C264.792 174.696 265.564 175.813 266.111 177.239C266.681 178.641 267.049 180.078 267.216 181.552C267.406 183.025 267.501 184.831 267.501 186.97V206.182L271.172 206.539V208H259.837L258.839 202.368H258.768C257.604 204.626 256.19 206.313 254.526 207.43C252.887 208.523 250.891 209.069 248.538 209.069C245.639 209.069 243.417 208.202 241.873 206.467C240.328 204.733 239.556 202.665 239.556 200.265ZM248.182 199.517C248.182 201.418 248.538 202.962 249.251 204.15C249.964 205.315 251.009 205.897 252.388 205.897C254.004 205.897 255.465 204.887 256.772 202.867C258.103 200.847 258.768 198.376 258.768 195.453V190.534C257.818 190.415 257.045 190.356 256.451 190.356C255.215 190.356 254.111 190.522 253.136 190.855C252.186 191.188 251.425 191.639 250.855 192.209C250.285 192.78 249.809 193.386 249.429 194.027C249.049 194.645 248.776 195.334 248.609 196.095C248.443 196.855 248.324 197.485 248.253 197.984C248.205 198.483 248.182 198.994 248.182 199.517ZM274.879 175.064V173.603L282.329 172.819L287.355 171.5L287.854 172.534V178.665H287.997C288.472 177.714 289.054 176.787 289.743 175.884C290.432 174.981 291.181 174.185 291.989 173.496C292.82 172.783 293.7 172.213 294.626 171.785C295.553 171.357 296.492 171.144 297.442 171.144C299.296 171.144 300.722 171.643 301.72 172.641C302.742 173.615 303.252 174.922 303.252 176.562C303.252 177.251 303.146 177.892 302.932 178.486C302.718 179.057 302.409 179.556 302.005 179.983C301.625 180.411 301.149 180.756 300.579 181.017C300.033 181.255 299.427 181.374 298.761 181.374C298.048 181.374 297.407 181.255 296.836 181.017C296.266 180.779 295.779 180.459 295.375 180.055C294.995 179.651 294.698 179.187 294.484 178.665C294.27 178.118 294.163 177.536 294.163 176.918C294.163 175.659 294.424 174.732 294.947 174.138V173.924C294.092 174.114 293.248 174.565 292.417 175.278C291.609 175.991 290.872 176.965 290.207 178.201C289.541 179.413 289.007 180.886 288.603 182.621C288.199 184.332 287.997 186.269 287.997 188.431V206.182L291.668 206.539V208H275.592V206.539L279.264 206.182V175.064H274.879Z" />
<path d="M526.877 208V203.144L543.496 202.065V59.9473L526.877 58.8682V54.0122H581.264C595.868 54.0122 608.386 55.8467 618.817 59.5156C629.248 63.1846 637.485 68.5081 643.528 75.4863C649.643 82.4645 654.068 90.5578 656.801 99.7661C659.607 108.974 661.01 119.622 661.01 131.708C661.01 140.412 660.111 148.542 658.312 156.095C656.514 163.577 653.636 170.555 649.679 177.03C645.794 183.432 640.903 188.936 635.003 193.54C629.176 198.072 621.982 201.633 613.421 204.223C604.932 206.741 595.4 208 584.825 208H526.877ZM571.121 200.986C575.005 201.705 578.53 202.065 581.696 202.065C589.034 202.065 595.544 200.878 601.228 198.504C606.983 196.13 611.767 192.857 615.58 188.684C619.464 184.44 622.666 179.296 625.184 173.253C627.701 167.138 629.5 160.52 630.579 153.397C631.73 146.275 632.306 138.47 632.306 129.981C632.306 121.636 631.91 114.19 631.119 107.644C630.327 101.097 628.817 94.7303 626.586 88.5435C624.428 82.3566 621.551 77.2489 617.954 73.2202C614.357 69.1916 609.609 65.9902 603.709 63.6162C597.81 61.1702 590.904 59.9473 582.991 59.9473C578.962 59.9473 575.005 60.307 571.121 61.0264V200.986ZM674.048 175.064V173.603L681.498 172.819L686.524 171.5L687.023 172.534V178.665H687.166C687.641 177.714 688.223 176.787 688.912 175.884C689.601 174.981 690.35 174.185 691.158 173.496C691.989 172.783 692.869 172.213 693.795 171.785C694.722 171.357 695.661 171.144 696.611 171.144C698.465 171.144 699.891 171.643 700.889 172.641C701.91 173.615 702.421 174.922 702.421 176.562C702.421 177.251 702.314 177.892 702.101 178.486C701.887 179.057 701.578 179.556 701.174 179.983C700.794 180.411 700.318 180.756 699.748 181.017C699.201 181.255 698.596 181.374 697.93 181.374C697.217 181.374 696.576 181.255 696.005 181.017C695.435 180.779 694.948 180.459 694.544 180.055C694.164 179.651 693.867 179.187 693.653 178.665C693.439 178.118 693.332 177.536 693.332 176.918C693.332 175.659 693.593 174.732 694.116 174.138V173.924C693.261 174.114 692.417 174.565 691.585 175.278C690.778 175.991 690.041 176.965 689.375 178.201C688.71 179.413 688.175 180.886 687.771 182.621C687.368 184.332 687.166 186.269 687.166 188.431V206.182L690.837 206.539V208H674.761V206.539L678.433 206.182V175.064H674.048ZM705.487 190.106C705.487 188.253 705.665 186.447 706.021 184.688C706.378 182.906 706.96 181.195 707.768 179.556C708.576 177.916 709.562 176.478 710.727 175.243C711.891 174.007 713.329 173.021 715.04 172.284C716.774 171.524 718.687 171.144 720.778 171.144C722.751 171.144 724.521 171.429 726.089 171.999C727.658 172.546 728.965 173.318 730.01 174.316C731.056 175.314 731.923 176.538 732.612 177.987C733.301 179.413 733.789 180.97 734.074 182.657C734.383 184.32 734.537 186.15 734.537 188.146L733.575 189.037H714.612V191.211C714.612 201.572 717.558 206.752 723.452 206.752C727.634 206.752 730.973 204.661 733.468 200.479L734.858 201.334C731.792 206.491 727.432 209.069 721.776 209.069C716.311 209.069 712.224 207.382 709.515 204.008C706.829 200.633 705.487 196 705.487 190.106ZM714.612 187.433L726.125 186.97C726.196 185.758 726.232 184.593 726.232 183.477C726.232 180.031 725.816 177.381 724.984 175.528C724.176 173.674 722.822 172.748 720.921 172.748C719.78 172.748 718.794 173.128 717.962 173.888C717.154 174.625 716.525 175.694 716.073 177.096C715.622 178.498 715.277 180.031 715.04 181.694C714.826 183.334 714.683 185.247 714.612 187.433ZM752.538 207.323C755.247 207.323 757.243 206.824 758.526 205.826C759.833 204.828 760.486 203.58 760.486 202.083C760.486 201.299 760.356 200.61 760.094 200.016C759.857 199.398 759.453 198.816 758.882 198.269C758.336 197.699 757.599 197.128 756.672 196.558C755.769 195.964 754.641 195.299 753.286 194.562C752.098 193.873 750.839 193.16 749.508 192.423C748.177 191.663 746.941 190.796 745.801 189.821C744.684 188.823 743.745 187.671 742.985 186.364C742.248 185.057 741.88 183.488 741.88 181.659C741.88 180.043 742.189 178.581 742.807 177.274C743.424 175.967 744.28 174.862 745.373 173.959C746.49 173.033 747.809 172.32 749.33 171.821C750.874 171.322 752.561 171.072 754.391 171.072C755.769 171.072 757.148 171.25 758.526 171.607C759.928 171.94 761.187 172.451 762.304 173.14C763.421 173.829 764.324 174.684 765.013 175.706C765.702 176.728 766.047 177.916 766.047 179.271C766.047 179.793 765.952 180.304 765.762 180.803C765.595 181.302 765.334 181.754 764.978 182.158C764.621 182.562 764.181 182.894 763.659 183.156C763.16 183.393 762.577 183.512 761.912 183.512C760.534 183.512 759.5 183.132 758.811 182.372C758.122 181.611 757.777 180.684 757.777 179.591C757.777 178.902 757.872 178.32 758.062 177.845C758.253 177.346 758.502 176.942 758.811 176.633C759.144 176.3 759.512 176.062 759.916 175.92C760.344 175.754 760.771 175.67 761.199 175.67H761.52V175.599C761.282 175.219 760.938 174.862 760.486 174.53C760.035 174.173 759.5 173.864 758.882 173.603C758.264 173.318 757.575 173.092 756.815 172.926C756.055 172.759 755.247 172.676 754.391 172.676C753.132 172.676 752.062 172.843 751.183 173.175C750.304 173.508 749.579 173.936 749.009 174.458C748.462 174.958 748.058 175.516 747.797 176.134C747.535 176.752 747.405 177.346 747.405 177.916C747.405 178.605 747.512 179.199 747.726 179.698C747.939 180.197 748.308 180.708 748.831 181.231C749.377 181.73 750.114 182.277 751.041 182.871C751.991 183.465 753.179 184.178 754.605 185.009C755.983 185.722 757.433 186.483 758.954 187.291C760.498 188.098 761.912 189.037 763.195 190.106C764.479 191.152 765.536 192.364 766.368 193.742C767.223 195.097 767.651 196.689 767.651 198.519C767.651 200.063 767.354 201.477 766.76 202.76C766.189 204.043 765.286 205.148 764.051 206.075C762.839 207.002 761.282 207.715 759.381 208.214C757.504 208.737 755.27 208.998 752.68 208.998C751.444 208.998 750.126 208.844 748.724 208.535C747.322 208.226 746.027 207.739 744.838 207.073C743.65 206.384 742.664 205.505 741.88 204.436C741.096 203.342 740.704 202.012 740.704 200.443C740.704 199.778 740.811 199.136 741.024 198.519C741.238 197.901 741.535 197.354 741.916 196.879C742.319 196.38 742.807 195.988 743.377 195.703C743.947 195.417 744.601 195.275 745.337 195.275C745.979 195.275 746.549 195.394 747.048 195.631C747.547 195.845 747.963 196.142 748.296 196.522C748.652 196.879 748.926 197.307 749.116 197.806C749.306 198.305 749.413 198.839 749.437 199.41C749.437 200.075 749.318 200.669 749.08 201.192C748.842 201.691 748.534 202.107 748.153 202.439C747.773 202.772 747.333 203.034 746.834 203.224C746.359 203.39 745.884 203.473 745.409 203.473C745.314 203.473 745.207 203.473 745.088 203.473C744.993 203.473 744.898 203.461 744.803 203.438V203.509C745.017 203.984 745.337 204.447 745.765 204.899C746.193 205.35 746.728 205.754 747.369 206.111C748.035 206.467 748.795 206.764 749.65 207.002C750.53 207.216 751.492 207.323 752.538 207.323ZM785.045 207.323C787.754 207.323 789.75 206.824 791.034 205.826C792.341 204.828 792.994 203.58 792.994 202.083C792.994 201.299 792.863 200.61 792.602 200.016C792.364 199.398 791.96 198.816 791.39 198.269C790.844 197.699 790.107 197.128 789.18 196.558C788.277 195.964 787.148 195.299 785.794 194.562C784.606 193.873 783.346 193.16 782.016 192.423C780.685 191.663 779.449 190.796 778.309 189.821C777.192 188.823 776.253 187.671 775.493 186.364C774.756 185.057 774.388 183.488 774.388 181.659C774.388 180.043 774.697 178.581 775.314 177.274C775.932 175.967 776.788 174.862 777.881 173.959C778.998 173.033 780.317 172.32 781.837 171.821C783.382 171.322 785.069 171.072 786.899 171.072C788.277 171.072 789.655 171.25 791.034 171.607C792.436 171.94 793.695 172.451 794.812 173.14C795.929 173.829 796.832 174.684 797.521 175.706C798.21 176.728 798.555 177.916 798.555 179.271C798.555 179.793 798.46 180.304 798.27 180.803C798.103 181.302 797.842 181.754 797.485 182.158C797.129 182.562 796.689 182.894 796.167 183.156C795.667 183.393 795.085 183.512 794.42 183.512C793.042 183.512 792.008 183.132 791.319 182.372C790.63 181.611 790.285 180.684 790.285 179.591C790.285 178.902 790.38 178.32 790.57 177.845C790.76 177.346 791.01 176.942 791.319 176.633C791.652 176.3 792.02 176.062 792.424 175.92C792.852 175.754 793.279 175.67 793.707 175.67H794.028V175.599C793.79 175.219 793.446 174.862 792.994 174.53C792.543 174.173 792.008 173.864 791.39 173.603C790.772 173.318 790.083 173.092 789.323 172.926C788.562 172.759 787.754 172.676 786.899 172.676C785.639 172.676 784.57 172.843 783.691 173.175C782.812 173.508 782.087 173.936 781.517 174.458C780.97 174.958 780.566 175.516 780.305 176.134C780.043 176.752 779.913 177.346 779.913 177.916C779.913 178.605 780.02 179.199 780.233 179.698C780.447 180.197 780.816 180.708 781.338 181.231C781.885 181.73 782.622 182.277 783.548 182.871C784.499 183.465 785.687 184.178 787.113 185.009C788.491 185.722 789.941 186.483 791.461 187.291C793.006 188.098 794.42 189.037 795.703 190.106C796.986 191.152 798.044 192.364 798.875 193.742C799.731 195.097 800.159 196.689 800.159 198.519C800.159 200.063 799.862 201.477 799.268 202.76C798.697 204.043 797.794 205.148 796.559 206.075C795.347 207.002 793.79 207.715 791.889 208.214C790.012 208.737 787.778 208.998 785.188 208.998C783.952 208.998 782.633 208.844 781.231 208.535C779.829 208.226 778.534 207.739 777.346 207.073C776.158 206.384 775.172 205.505 774.388 204.436C773.604 203.342 773.211 202.012 773.211 200.443C773.211 199.778 773.318 199.136 773.532 198.519C773.746 197.901 774.043 197.354 774.423 196.879C774.827 196.38 775.314 195.988 775.885 195.703C776.455 195.417 777.109 195.275 777.845 195.275C778.487 195.275 779.057 195.394 779.556 195.631C780.055 195.845 780.471 196.142 780.804 196.522C781.16 196.879 781.433 197.307 781.624 197.806C781.814 198.305 781.921 198.839 781.944 199.41C781.944 200.075 781.826 200.669 781.588 201.192C781.35 201.691 781.041 202.107 780.661 202.439C780.281 202.772 779.841 203.034 779.342 203.224C778.867 203.39 778.392 203.473 777.917 203.473C777.821 203.473 777.715 203.473 777.596 203.473C777.501 203.473 777.406 203.461 777.311 203.438V203.509C777.524 203.984 777.845 204.447 778.273 204.899C778.701 205.35 779.235 205.754 779.877 206.111C780.542 206.467 781.303 206.764 782.158 207.002C783.037 207.216 784 207.323 785.045 207.323ZM805.505 190.106C805.505 188.253 805.684 186.447 806.04 184.688C806.396 182.906 806.979 181.195 807.787 179.556C808.595 177.916 809.581 176.478 810.745 175.243C811.91 174.007 813.347 173.021 815.058 172.284C816.793 171.524 818.706 171.144 820.797 171.144C822.769 171.144 824.54 171.429 826.108 171.999C827.676 172.546 828.983 173.318 830.029 174.316C831.074 175.314 831.942 176.538 832.631 177.987C833.32 179.413 833.807 180.97 834.092 182.657C834.401 184.32 834.556 186.15 834.556 188.146L833.593 189.037H814.63V191.211C814.63 201.572 817.577 206.752 823.47 206.752C827.653 206.752 830.991 204.661 833.486 200.479L834.876 201.334C831.811 206.491 827.451 209.069 821.795 209.069C816.329 209.069 812.242 207.382 809.533 204.008C806.848 200.633 805.505 196 805.505 190.106ZM814.63 187.433L826.144 186.97C826.215 185.758 826.25 184.593 826.25 183.477C826.25 180.031 825.835 177.381 825.003 175.528C824.195 173.674 822.84 172.748 820.939 172.748C819.799 172.748 818.813 173.128 817.981 173.888C817.173 174.625 816.543 175.694 816.092 177.096C815.64 178.498 815.296 180.031 815.058 181.694C814.844 183.334 814.702 185.247 814.63 187.433ZM852.556 207.323C855.265 207.323 857.261 206.824 858.544 205.826C859.851 204.828 860.505 203.58 860.505 202.083C860.505 201.299 860.374 200.61 860.113 200.016C859.875 199.398 859.471 198.816 858.901 198.269C858.354 197.699 857.618 197.128 856.691 196.558C855.788 195.964 854.659 195.299 853.305 194.562C852.117 193.873 850.857 193.16 849.526 192.423C848.196 191.663 846.96 190.796 845.819 189.821C844.702 188.823 843.764 187.671 843.003 186.364C842.267 185.057 841.898 183.488 841.898 181.659C841.898 180.043 842.207 178.581 842.825 177.274C843.443 175.967 844.299 174.862 845.392 173.959C846.508 173.033 847.827 172.32 849.348 171.821C850.893 171.322 852.58 171.072 854.41 171.072C855.788 171.072 857.166 171.25 858.544 171.607C859.946 171.94 861.206 172.451 862.323 173.14C863.44 173.829 864.343 174.684 865.032 175.706C865.721 176.728 866.065 177.916 866.065 179.271C866.065 179.793 865.97 180.304 865.78 180.803C865.614 181.302 865.353 181.754 864.996 182.158C864.64 182.562 864.2 182.894 863.677 183.156C863.178 183.393 862.596 183.512 861.931 183.512C860.552 183.512 859.519 183.132 858.83 182.372C858.14 181.611 857.796 180.684 857.796 179.591C857.796 178.902 857.891 178.32 858.081 177.845C858.271 177.346 858.521 176.942 858.83 176.633C859.162 176.3 859.531 176.062 859.935 175.92C860.362 175.754 860.79 175.67 861.218 175.67H861.539V175.599C861.301 175.219 860.956 174.862 860.505 174.53C860.053 174.173 859.519 173.864 858.901 173.603C858.283 173.318 857.594 173.092 856.833 172.926C856.073 172.759 855.265 172.676 854.41 172.676C853.15 172.676 852.081 172.843 851.202 173.175C850.322 173.508 849.598 173.936 849.027 174.458C848.481 174.958 848.077 175.516 847.815 176.134C847.554 176.752 847.423 177.346 847.423 177.916C847.423 178.605 847.53 179.199 847.744 179.698C847.958 180.197 848.326 180.708 848.849 181.231C849.396 181.73 850.132 182.277 851.059 182.871C852.01 183.465 853.198 184.178 854.624 185.009C856.002 185.722 857.451 186.483 858.972 187.291C860.517 188.098 861.931 189.037 863.214 190.106C864.497 191.152 865.555 192.364 866.386 193.742C867.242 195.097 867.669 196.689 867.669 198.519C867.669 200.063 867.372 201.477 866.778 202.76C866.208 204.043 865.305 205.148 864.069 206.075C862.857 207.002 861.301 207.715 859.4 208.214C857.523 208.737 855.289 208.998 852.699 208.998C851.463 208.998 850.144 208.844 848.742 208.535C847.34 208.226 846.045 207.739 844.857 207.073C843.669 206.384 842.683 205.505 841.898 204.436C841.114 203.342 840.722 202.012 840.722 200.443C840.722 199.778 840.829 199.136 841.043 198.519C841.257 197.901 841.554 197.354 841.934 196.879C842.338 196.38 842.825 195.988 843.396 195.703C843.966 195.417 844.619 195.275 845.356 195.275C845.998 195.275 846.568 195.394 847.067 195.631C847.566 195.845 847.982 196.142 848.314 196.522C848.671 196.879 848.944 197.307 849.134 197.806C849.324 198.305 849.431 198.839 849.455 199.41C849.455 200.075 849.336 200.669 849.099 201.192C848.861 201.691 848.552 202.107 848.172 202.439C847.792 202.772 847.352 203.034 846.853 203.224C846.378 203.39 845.903 203.473 845.427 203.473C845.332 203.473 845.225 203.473 845.106 203.473C845.011 203.473 844.916 203.461 844.821 203.438V203.509C845.035 203.984 845.356 204.447 845.784 204.899C846.211 205.35 846.746 205.754 847.388 206.111C848.053 206.467 848.813 206.764 849.669 207.002C850.548 207.216 851.511 207.323 852.556 207.323Z" />
</svg>
