<?xml version="1.0" encoding="UTF-8"?>
<svg xmlns="http://www.w3.org/2000/svg" xmlns:xlink="http://www.w3.org/1999/xlink" width="64px" height="64px" viewBox="0 0 64 64" version="1.1">
<g id="surface1">
<path style="fill-rule:nonzero;fill:rgb(100%,100%,100%);fill-opacity:1;stroke-width:53;stroke-linecap:butt;stroke-linejoin:miter;stroke:rgb(0%,0%,0%);stroke-opacity:1;stroke-miterlimit:4;" d="M 997.5 512 C 997.5 780.125 780.125 997.5 512 997.5 C 243.875 997.5 26.5 780.125 26.5 512 C 26.5 243.875 243.875 26.5 512 26.5 C 780.125 26.5 997.5 243.875 997.5 512 Z M 997.5 512 " transform="matrix(0.0625,0,0,0.0625,0,0)"/>
<path style=" stroke:none;fill-rule:nonzero;fill:rgb(0%,0%,0%);fill-opacity:1;" d="M 14.191406 51.625 L 14.191406 51.042969 L 16.179688 50.914062 L 16.179688 33.914062 L 14.191406 33.785156 L 14.191406 33.203125 L 21.097656 33.203125 C 21.839844 33.203125 22.511719 33.238281 23.113281 33.308594 C 23.722656 33.375 24.324219 33.503906 24.917969 33.695312 C 25.511719 33.875 26.007812 34.117188 26.402344 34.417969 C 26.808594 34.71875 27.132812 35.117188 27.371094 35.617188 C 27.621094 36.109375 27.746094 36.683594 27.746094 37.347656 C 27.746094 37.871094 27.628906 38.359375 27.398438 38.804688 C 27.164062 39.246094 26.867188 39.609375 26.507812 39.902344 C 26.15625 40.195312 25.742188 40.457031 25.269531 40.691406 C 24.792969 40.914062 24.339844 41.085938 23.898438 41.207031 C 23.460938 41.328125 23.023438 41.417969 22.582031 41.480469 L 22.582031 41.53125 C 23.453125 41.53125 24.253906 41.632812 24.984375 41.839844 C 25.714844 42.039062 26.351562 42.335938 26.894531 42.730469 C 27.445312 43.125 27.875 43.648438 28.1875 44.292969 C 28.496094 44.929688 28.648438 45.65625 28.648438 46.472656 C 28.648438 47.214844 28.515625 47.882812 28.25 48.476562 C 27.984375 49.058594 27.625 49.546875 27.179688 49.933594 C 26.730469 50.320312 26.203125 50.644531 25.589844 50.902344 C 24.988281 51.160156 24.359375 51.34375 23.707031 51.457031 C 23.050781 51.570312 22.367188 51.625 21.652344 51.625 Z M 19.484375 50.785156 C 19.949219 50.871094 20.398438 50.914062 20.828125 50.914062 C 22.195312 50.914062 23.265625 50.519531 24.042969 49.726562 C 24.824219 48.9375 25.214844 47.859375 25.214844 46.5 C 25.214844 45.046875 24.8125 43.9375 24.003906 43.167969 C 23.203125 42.394531 22.09375 42.007812 20.671875 42.007812 C 20.269531 42.007812 19.871094 42.039062 19.484375 42.097656 Z M 19.484375 41.21875 C 19.847656 41.273438 20.179688 41.296875 20.480469 41.296875 C 23.085938 41.296875 24.390625 40.007812 24.390625 37.425781 C 24.390625 36.324219 24.097656 35.464844 23.511719 34.84375 C 22.925781 34.222656 22.03125 33.914062 20.828125 33.914062 C 20.398438 33.914062 19.949219 33.957031 19.484375 34.042969 Z M 19.484375 41.21875 "/>
<path style=" stroke:none;fill-rule:nonzero;fill:rgb(0%,0%,0%);fill-opacity:1;" d="M 35.691406 51.625 L 35.691406 51.042969 L 37.679688 50.914062 L 37.679688 33.914062 L 35.691406 33.785156 L 35.691406 33.203125 L 42.199219 33.203125 C 43.945312 33.203125 45.441406 33.421875 46.691406 33.863281 C 47.9375 34.300781 48.925781 34.9375 49.648438 35.773438 C 50.378906 36.609375 50.90625 37.574219 51.234375 38.675781 C 51.570312 39.777344 51.738281 41.050781 51.738281 42.5 C 51.738281 43.539062 51.628906 44.511719 51.414062 45.414062 C 51.199219 46.3125 50.855469 47.144531 50.382812 47.921875 C 49.917969 48.6875 49.332031 49.34375 48.628906 49.894531 C 47.929688 50.4375 47.070312 50.863281 46.046875 51.171875 C 45.03125 51.472656 43.890625 51.625 42.625 51.625 Z M 40.984375 50.785156 C 41.449219 50.871094 41.871094 50.914062 42.25 50.914062 C 43.128906 50.914062 43.90625 50.773438 44.585938 50.488281 C 45.273438 50.203125 45.847656 49.8125 46.304688 49.3125 C 46.769531 48.804688 47.152344 48.191406 47.453125 47.46875 C 47.753906 46.738281 47.96875 45.945312 48.097656 45.09375 C 48.234375 44.242188 48.304688 43.308594 48.304688 42.292969 C 48.304688 41.292969 48.257812 40.402344 48.164062 39.621094 C 48.066406 38.835938 47.886719 38.074219 47.621094 37.335938 C 47.363281 36.59375 47.019531 35.984375 46.585938 35.5 C 46.15625 35.019531 45.589844 34.636719 44.882812 34.351562 C 44.179688 34.058594 43.351562 33.914062 42.40625 33.914062 C 41.921875 33.914062 41.449219 33.957031 40.984375 34.042969 Z M 40.984375 50.785156 "/>
<path style=" stroke:none;fill-rule:nonzero;fill:rgb(0%,0%,0%);fill-opacity:1;" d="M 19.464844 14.160156 L 19.464844 13.578125 L 26.628906 13.578125 L 26.628906 14.160156 L 24.871094 14.289062 L 28.304688 27.183594 L 28.359375 27.183594 L 32.347656 13.308594 L 32.929688 13.308594 L 37.574219 27.132812 L 37.625 27.132812 L 41.320312 14.289062 L 39.574219 14.160156 L 39.574219 13.578125 L 43.667969 13.578125 L 43.667969 14.160156 L 42.105469 14.289062 L 36.863281 32.257812 L 36.285156 32.257812 L 31.535156 18.792969 L 31.507812 18.792969 L 27.558594 32.257812 L 26.976562 32.257812 L 21.414062 14.289062 Z M 19.464844 14.160156 "/>
</g>
</svg>
