<?xml version="1.0" encoding="UTF-8"?>
<svg xmlns="http://www.w3.org/2000/svg" xmlns:xlink="http://www.w3.org/1999/xlink" width="96px" height="96px" viewBox="0 0 96 96" version="1.1">
<g id="surface1">
<path style="fill-rule:nonzero;fill:rgb(100%,100%,100%);fill-opacity:1;stroke-width:53;stroke-linecap:butt;stroke-linejoin:miter;stroke:rgb(0%,0%,0%);stroke-opacity:1;stroke-miterlimit:4;" d="M 997.5 512 C 997.5 780.125 780.125 997.5 512 997.5 C 243.875 997.5 26.5 780.125 26.5 512 C 26.5 243.875 243.875 26.5 512 26.5 C 780.125 26.5 997.5 243.875 997.5 512 Z M 997.5 512 " transform="matrix(0.09375,0,0,0.09375,0,0)"/>
<path style=" stroke:none;fill-rule:nonzero;fill:rgb(0%,0%,0%);fill-opacity:1;" d="M 21.289062 77.4375 L 21.289062 76.566406 L 24.269531 76.371094 L 24.269531 50.871094 L 21.289062 50.675781 L 21.289062 49.804688 L 31.648438 49.804688 C 32.757812 49.804688 33.765625 49.859375 34.667969 49.960938 C 35.585938 50.0625 36.488281 50.257812 37.378906 50.542969 C 38.269531 50.8125 39.011719 51.175781 39.605469 51.625 C 40.214844 52.078125 40.695312 52.679688 41.058594 53.425781 C 41.433594 54.164062 41.621094 55.027344 41.621094 56.023438 C 41.621094 56.808594 41.445312 57.539062 41.097656 58.210938 C 40.75 58.867188 40.304688 59.417969 39.761719 59.855469 C 39.230469 60.292969 38.613281 60.6875 37.902344 61.035156 C 37.191406 61.371094 36.507812 61.628906 35.851562 61.8125 C 35.191406 61.992188 34.53125 62.128906 33.875 62.21875 L 33.875 62.296875 C 35.179688 62.296875 36.378906 62.449219 37.476562 62.761719 C 38.574219 63.058594 39.527344 63.503906 40.34375 64.097656 C 41.167969 64.691406 41.8125 65.472656 42.277344 66.4375 C 42.742188 67.394531 42.976562 68.484375 42.976562 69.710938 C 42.976562 70.820312 42.777344 71.820312 42.375 72.710938 C 41.976562 73.589844 41.4375 74.320312 40.769531 74.902344 C 40.097656 75.480469 39.304688 75.964844 38.386719 76.351562 C 37.484375 76.742188 36.539062 77.019531 35.558594 77.1875 C 34.578125 77.355469 33.550781 77.4375 32.480469 77.4375 Z M 29.226562 76.179688 C 29.925781 76.308594 30.597656 76.371094 31.242188 76.371094 C 33.292969 76.371094 34.902344 75.777344 36.0625 74.589844 C 37.238281 73.402344 37.824219 71.789062 37.824219 69.75 C 37.824219 67.570312 37.21875 65.902344 36.003906 64.753906 C 34.804688 63.59375 33.140625 63.011719 31.007812 63.011719 C 30.402344 63.011719 29.808594 63.058594 29.226562 63.148438 Z M 29.226562 61.832031 C 29.769531 61.90625 30.265625 61.945312 30.71875 61.945312 C 34.628906 61.945312 36.585938 60.011719 36.585938 56.136719 C 36.585938 54.484375 36.148438 53.195312 35.269531 52.265625 C 34.390625 51.335938 33.046875 50.871094 31.242188 50.871094 C 30.597656 50.871094 29.925781 50.933594 29.226562 51.066406 Z M 29.226562 61.832031 "/>
<path style=" stroke:none;fill-rule:nonzero;fill:rgb(0%,0%,0%);fill-opacity:1;" d="M 53.539062 77.4375 L 53.539062 76.566406 L 56.519531 76.371094 L 56.519531 50.871094 L 53.539062 50.675781 L 53.539062 49.804688 L 63.296875 49.804688 C 65.917969 49.804688 68.164062 50.136719 70.035156 50.792969 C 71.90625 51.453125 73.386719 52.40625 74.46875 53.660156 C 75.566406 54.910156 76.363281 56.363281 76.851562 58.015625 C 77.355469 59.667969 77.605469 61.578125 77.605469 63.746094 C 77.605469 65.308594 77.445312 66.769531 77.125 68.125 C 76.800781 69.464844 76.285156 70.71875 75.574219 71.878906 C 74.878906 73.027344 74 74.015625 72.941406 74.84375 C 71.894531 75.65625 70.605469 76.296875 69.066406 76.761719 C 67.542969 77.210938 65.835938 77.4375 63.9375 77.4375 Z M 61.476562 76.179688 C 62.175781 76.308594 62.808594 76.371094 63.375 76.371094 C 64.691406 76.371094 65.859375 76.160156 66.878906 75.734375 C 67.914062 75.308594 68.769531 74.71875 69.457031 73.972656 C 70.152344 73.210938 70.726562 72.285156 71.179688 71.203125 C 71.628906 70.105469 71.953125 68.917969 72.148438 67.640625 C 72.351562 66.363281 72.457031 64.960938 72.457031 63.4375 C 72.457031 61.941406 72.386719 60.605469 72.242188 59.429688 C 72.101562 58.253906 71.832031 57.113281 71.429688 56.003906 C 71.042969 54.890625 70.527344 53.976562 69.882812 53.253906 C 69.234375 52.53125 68.382812 51.957031 67.324219 51.53125 C 66.265625 51.089844 65.027344 50.871094 63.609375 50.871094 C 62.882812 50.871094 62.175781 50.933594 61.476562 51.066406 Z M 61.476562 76.179688 "/>
<path style=" stroke:none;fill-rule:nonzero;fill:rgb(0%,0%,0%);fill-opacity:1;" d="M 29.195312 21.238281 L 29.195312 20.367188 L 39.941406 20.367188 L 39.941406 21.238281 L 37.308594 21.433594 L 42.460938 40.777344 L 42.539062 40.777344 L 48.519531 19.960938 L 49.390625 19.960938 L 56.363281 40.699219 L 56.441406 40.699219 L 61.976562 21.433594 L 59.363281 21.238281 L 59.363281 20.367188 L 65.503906 20.367188 L 65.503906 21.238281 L 63.160156 21.433594 L 55.296875 48.386719 L 54.425781 48.386719 L 47.300781 28.191406 L 47.261719 28.191406 L 41.335938 48.386719 L 40.464844 48.386719 L 32.121094 21.433594 Z M 29.195312 21.238281 "/>
</g>
</svg>
