<svg width="232" height="295" viewBox="0 0 232 295" fill="none" xmlns="http://www.w3.org/2000/svg">
<path d="M0.0776367 295V285.706L31.8853 283.64V11.623L0.0776367 9.55762V0.263184H110.578C122.42 0.263184 133.16 0.813965 142.799 1.91553C152.575 3.01709 162.214 5.08252 171.715 8.11182C181.216 11.0034 189.133 14.8589 195.467 19.6782C201.939 24.4976 207.103 30.9004 210.958 38.8867C214.951 46.7354 216.948 55.9609 216.948 66.5635C216.948 74.9629 215.089 82.7427 211.371 89.9028C207.653 96.9253 202.903 102.777 197.12 107.459C191.474 112.141 184.865 116.34 177.292 120.058C169.718 123.638 162.42 126.392 155.398 128.32C148.375 130.248 141.353 131.693 134.331 132.657V133.483C148.238 133.483 161.043 135.136 172.748 138.44C184.452 141.607 194.641 146.358 203.316 152.692C212.128 159.026 219.013 167.356 223.97 177.684C228.927 187.873 231.406 199.508 231.406 212.589C231.406 224.431 229.271 235.103 225.003 244.604C220.734 253.967 215.02 261.747 207.86 267.943C200.7 274.139 192.231 279.303 182.455 283.434C172.816 287.564 162.765 290.525 152.3 292.315C141.835 294.105 130.888 295 119.459 295H0.0776367ZM84.7603 281.575C92.1958 282.952 99.356 283.64 106.241 283.64C128.134 283.64 145.277 277.306 157.67 264.638C170.2 251.97 176.465 234.758 176.465 213.002C176.465 189.732 169.994 171.969 157.05 159.714C144.245 147.322 126.482 141.125 103.762 141.125C97.2905 141.125 90.9565 141.607 84.7603 142.571V281.575ZM84.7603 128.526C90.5435 129.353 95.8447 129.766 100.664 129.766C142.386 129.766 163.247 109.111 163.247 67.8027C163.247 50.1777 158.565 36.4082 149.202 26.4941C139.838 16.5801 125.518 11.623 106.241 11.623C99.356 11.623 92.1958 12.3115 84.7603 13.6885V128.526Z" fill="black"/>
</svg>
