<svg width="1024" height="1024" viewBox="0 0 1024 1024" fill="none" xmlns="http://www.w3.org/2000/svg">
<circle cx="512" cy="512" r="485.5" fill="white" stroke="black" stroke-width="53"/>
<path d="M227.078 826V816.706L258.885 814.64V542.623L227.078 540.558V531.263H337.578C349.42 531.263 360.16 531.814 369.799 532.916C379.575 534.017 389.214 536.083 398.715 539.112C408.216 542.003 416.133 545.859 422.467 550.678C428.939 555.498 434.103 561.9 437.958 569.887C441.951 577.735 443.948 586.961 443.948 597.563C443.948 605.963 442.089 613.743 438.371 620.903C434.653 627.925 429.903 633.777 424.12 638.459C418.474 643.141 411.865 647.34 404.292 651.058C396.718 654.638 389.42 657.392 382.398 659.32C375.375 661.248 368.353 662.693 361.331 663.657V664.483C375.238 664.483 388.043 666.136 399.748 669.44C411.452 672.607 421.641 677.358 430.316 683.692C439.128 690.026 446.013 698.356 450.97 708.684C455.927 718.873 458.406 730.508 458.406 743.589C458.406 755.431 456.271 766.103 452.003 775.604C447.734 784.967 442.02 792.747 434.86 798.943C427.7 805.139 419.231 810.303 409.455 814.434C399.816 818.564 389.765 821.525 379.3 823.315C368.835 825.105 357.888 826 346.459 826H227.078ZM311.76 812.575C319.196 813.952 326.356 814.64 333.241 814.64C355.134 814.64 372.277 808.306 384.67 795.638C397.2 782.97 403.465 765.758 403.465 744.002C403.465 720.732 396.994 702.969 384.05 690.714C371.245 678.322 353.482 672.125 330.762 672.125C324.291 672.125 317.957 672.607 311.76 673.571V812.575ZM311.76 659.526C317.543 660.353 322.845 660.766 327.664 660.766C369.386 660.766 390.247 640.111 390.247 598.803C390.247 581.178 385.565 567.408 376.202 557.494C366.838 547.58 352.518 542.623 333.241 542.623C326.356 542.623 319.196 543.312 311.76 544.688V659.526Z" fill="black"/>
<path d="M571.078 826V816.706L602.885 814.64V542.623L571.078 540.558V531.263H675.175C703.127 531.263 727.086 534.774 747.052 541.797C767.018 548.819 782.784 559.009 794.351 572.365C806.055 585.722 814.523 601.212 819.755 618.837C825.125 636.462 827.811 656.841 827.811 679.974C827.811 696.635 826.089 712.195 822.647 726.653C819.205 740.973 813.697 754.33 806.124 766.722C798.688 778.977 789.325 789.511 778.034 798.323C766.88 806.998 753.111 813.814 736.725 818.771C720.477 823.59 702.232 826 681.991 826H571.078ZM655.76 812.575C663.196 813.952 669.943 814.64 676.001 814.64C690.046 814.64 702.508 812.368 713.386 807.824C724.401 803.28 733.558 797.015 740.856 789.029C748.292 780.905 754.419 771.06 759.238 759.493C764.058 747.789 767.5 735.121 769.565 721.489C771.769 707.857 772.87 692.917 772.87 676.669C772.87 660.697 772.113 646.445 770.598 633.915C769.083 621.385 766.192 609.199 761.923 597.357C757.792 585.515 752.285 575.739 745.4 568.028C738.515 560.317 729.427 554.189 718.136 549.646C706.845 544.964 693.626 542.623 678.48 542.623C670.769 542.623 663.196 543.312 655.76 544.688V812.575Z" fill="black"/>
<path d="M311.423 226.558V217.263H426.055V226.558L397.965 228.623L452.905 434.959H453.731L517.553 212.926H526.848L601.203 434.133H602.029L661.101 228.623L633.217 226.558V217.263H698.691V226.558L673.7 228.623L589.843 516.131H580.549L504.541 300.707H504.128L440.926 516.131H431.631L342.611 228.623L311.423 226.558Z" fill="black"/>
</svg>
