<svg width="257" height="295" viewBox="0 0 257 295" fill="none" xmlns="http://www.w3.org/2000/svg">
<path d="M0.0776367 295V285.706L31.8853 283.64V11.623L0.0776367 9.55762V0.263184H104.175C132.127 0.263184 156.086 3.77441 176.052 10.7969C196.018 17.8193 211.784 28.0088 223.351 41.3652C235.055 54.7217 243.523 70.2124 248.755 87.8374C254.125 105.462 256.811 125.841 256.811 148.974C256.811 165.635 255.089 181.195 251.647 195.653C248.205 209.973 242.697 223.33 235.124 235.722C227.688 247.977 218.325 258.511 207.034 267.323C195.88 275.998 182.111 282.814 165.725 287.771C149.477 292.59 131.232 295 110.991 295H0.0776367ZM84.7603 281.575C92.1958 282.952 98.9429 283.64 105.001 283.64C119.046 283.64 131.508 281.368 142.386 276.824C153.401 272.28 162.558 266.015 169.856 258.029C177.292 249.905 183.419 240.06 188.238 228.493C193.058 216.789 196.5 204.121 198.565 190.489C200.769 176.857 201.87 161.917 201.87 145.669C201.87 129.697 201.113 115.445 199.598 102.915C198.083 90.3848 195.192 78.1987 190.923 66.3569C186.792 54.5151 181.285 44.7388 174.4 37.0278C167.515 29.3169 158.427 23.1895 147.136 18.6455C135.845 13.9639 122.626 11.623 107.48 11.623C99.769 11.623 92.1958 12.3115 84.7603 13.6885V281.575Z" fill="black"/>
</svg>
